<svg xmlns="http://www.w3.org/2000/svg" data-name="Layer 1" viewBox="0 0 100 125" x="0px" y="0px"><title>Artboard 24</title><path d="M23,72a7,7,0,0,0,7,7H70a7,7,0,0,0,7-7V61H71V72a1,1,0,0,1-1,1H30a1,1,0,0,1-1-1V61H23Z"/><path d="M47,21V52.76l-9-9L33.76,48,47.88,62.12a3,3,0,0,0,4.24,0L66.24,48,62,43.76l-9,9V21Z"/><text x="0" y="115" fill="#000000" font-size="5px" font-weight="bold" font-family="'Helvetica Neue', Helvetica, Arial-Unicode, Arial, Sans-serif">Created by Gregor Cresnar</text><text x="0" y="120" fill="#000000" font-size="5px" font-weight="bold" font-family="'Helvetica Neue', Helvetica, Arial-Unicode, Arial, Sans-serif">from the Noun Project</text></svg>