<svg xmlns="http://www.w3.org/2000/svg" xmlns:xlink="http://www.w3.org/1999/xlink" viewBox="0 0 632.49 273.88"><defs><style>.cls-1{fill:url(#linear-gradient);}.cls-2{fill:url(#linear-gradient-2);}.cls-3{fill:url(#linear-gradient-3);}.cls-4{fill:url(#linear-gradient-4);}.cls-5{fill:url(#linear-gradient-5);}.cls-6{fill:url(#linear-gradient-6);}.cls-7{fill:url(#linear-gradient-7);}.cls-8{fill:url(#linear-gradient-8);}.cls-9{fill:#fff;}</style><linearGradient id="linear-gradient" x1="-16.36" y1="51.29" x2="97.04" y2="323.46" gradientUnits="userSpaceOnUse"><stop offset="0" stop-color="#5bd247"/><stop offset="0.83" stop-color="#1c78ba"/></linearGradient><linearGradient id="linear-gradient-2" x1="43.77" y1="328.91" x2="133.28" y2="198.18" gradientUnits="userSpaceOnUse"><stop offset="0" stop-color="#2a8c76"/><stop offset="0.1" stop-color="#27867e"/><stop offset="0.42" stop-color="#1d7595"/><stop offset="0.73" stop-color="#186ba3"/><stop offset="1" stop-color="#1667a8"/></linearGradient><linearGradient id="linear-gradient-3" x1="132.79" y1="343.83" x2="18.87" y2="-18.04" gradientUnits="userSpaceOnUse"><stop offset="0" stop-color="#5bd247"/><stop offset="0.04" stop-color="#56ca51"/><stop offset="0.24" stop-color="#41ad76"/><stop offset="0.43" stop-color="#319694"/><stop offset="0.62" stop-color="#2585a9"/><stop offset="0.8" stop-color="#1e7bb6"/><stop offset="0.98" stop-color="#1c78ba"/></linearGradient><linearGradient id="linear-gradient-4" x1="156.74" y1="336.3" x2="42.8" y2="-25.62" xlink:href="#linear-gradient-3"/><linearGradient id="linear-gradient-5" x1="186.57" y1="326.91" x2="72.63" y2="-35.02" xlink:href="#linear-gradient-3"/><linearGradient id="linear-gradient-6" x1="128.81" y1="84.53" x2="136.57" y2="276.3" gradientUnits="userSpaceOnUse"><stop offset="0" stop-color="#3193b8"/><stop offset="0.61" stop-color="#4aad9d"/><stop offset="0.98" stop-color="#5cbf8b"/></linearGradient><linearGradient id="linear-gradient-7" x1="151.43" y1="337.98" x2="37.49" y2="-23.95" xlink:href="#linear-gradient-3"/><linearGradient id="linear-gradient-8" x1="111.02" y1="85.25" x2="118.78" y2="277.01" xlink:href="#linear-gradient-6"/></defs><g id="Layer_2" data-name="Layer 2"><g id="Layer_1-2" data-name="Layer 1"><path class="cls-1" d="M111.12,241.76C66.52,256.88-3.8,201.68,20,133.54c-23.82,37.52-32,80.22,7.38,119.2,21.05,20.82,60.39,24.92,77.66,18.12,5.81-2.28,7.42-5.2,10-8.27C120.84,256.39,111.12,241.76,111.12,241.76Z"/><path class="cls-2" d="M115.67,251a46,46,0,0,0-4.55-9.24A47.86,47.86,0,0,1,100.43,244c-1.8,6.94-7.3,31.06-41.16,26.16C72.74,274,86.62,274.73,97,273l1.66-.3a37.81,37.81,0,0,0,6.43-1.84,19.2,19.2,0,0,0,5-2.8c.52-.7,1-1.44,1.54-2.21Z"/><path class="cls-3" d="M107.13,270a32.27,32.27,0,0,0,3.89-2.48l-1.82-6.36A26.81,26.81,0,0,1,107.13,270Z"/><path class="cls-4" d="M137.69,252.52c18.4-17.51,27.45-38.56,27.45-62,0-72.81-95-103.59-91.24-190.52-120.85,162.62,56.46,214.61,33.23,270,14.07-7.4,23.91-27.21,23.91-46.73,0-48-70.59-84-65.36-155.81.45,45.31,32.86,80,60.11,111.43C141.46,197,154.58,235.78,137.69,252.52Z"/><path class="cls-5" d="M116.08,167.75c3.27,3.77,6.53,7.49,9.71,11.16,15.67,18.06,28.79,56.87,11.9,73.61,18.4-17.51,27.45-38.56,27.45-62,0-48.33-41.88-78.15-68.93-118.16C114.34,101,118.32,135.28,116.08,167.75Z"/><path class="cls-6" d="M116.08,167.75c3.27,3.77,6.53,7.49,9.71,11.16,15.67,18.06,28.79,56.87,11.9,73.61,18.4-17.51,27.45-38.56,27.45-62,0-48.33-41.88-78.15-68.93-118.16C114.34,101,118.32,135.28,116.08,167.75Z"/><path class="cls-7" d="M131,223.29c0-15-6.85-28.78-16.14-42.86a366.09,366.09,0,0,1-12.16,58.16l.34,1.16c4.16,7.34,6.54,14.41,6.12,21.43l1.82,6.36C123,258.81,131,241,131,223.29Z"/><path class="cls-8" d="M131,223.29c0-15-6.85-28.78-16.14-42.86a366.09,366.09,0,0,1-12.16,58.16l.34,1.16c4.16,7.34,6.54,14.41,6.12,21.43a24,24,0,0,1-2.07,8.84l3.89-2.48C123,258.81,131,241,131,223.29Z"/><path class="cls-9" d="M225,49.32a48.27,48.27,0,0,1,23.2,6V69.51q-12.81-7.73-22.72-7.73c-4,0-7.16.77-9.42,2.33a7.21,7.21,0,0,0-3.39,6.23Q212.65,75,219,79q1.77,1.18,13.64,6.61,10.16,4.78,14.64,10.63a22.38,22.38,0,0,1,4.48,14q0,10.62-7.64,17.14t-19.8,6.53a46.87,46.87,0,0,1-13.61-1.75,58.54,58.54,0,0,1-12.78-6v-15.7q13.23,11,24.91,11c3.9,0,7-.84,9.44-2.54a7.85,7.85,0,0,0,3.6-6.73q0-5.72-6.25-9.32-5.21-2.83-13.4-6.79-9.74-4.42-14.55-10.33a21,21,0,0,1-4.81-13.69q0-10.39,7.73-16.56T225,49.32Z"/><path class="cls-9" d="M297.53,50.39q11.57,0,18.79,6.69t7.23,17.27q0,10.68-7.31,17.29t-19.31,6.61H281.59v34.59H265.65V50.39Zm-4,35.41q6.38,0,9.95-2.92t3.57-8.65q0-11.39-14.64-11.39H281.59v23Z"/><path class="cls-9" d="M352.18,50.39v70h40v12.45H336.25V50.39Z"/><path class="cls-9" d="M444.91,50.39l36.42,82.45H464.51L456,112.77H419.29l-8,20.07h-16.7l34-82.45Zm-20.78,50.28h26.62L436.82,68Z"/><path class="cls-9" d="M514.91,49.32a48.27,48.27,0,0,1,23.2,6V69.51q-12.81-7.73-22.72-7.73c-4,0-7.16.77-9.42,2.33a7.21,7.21,0,0,0-3.39,6.23q0,4.66,6.31,8.61,1.77,1.18,13.64,6.61,10.14,4.78,14.64,10.63a22.38,22.38,0,0,1,4.48,14q0,10.62-7.64,17.14t-19.81,6.53a46.85,46.85,0,0,1-13.6-1.75,58.54,58.54,0,0,1-12.78-6v-15.7q13.21,11,24.91,11c3.9,0,7-.84,9.44-2.54a7.85,7.85,0,0,0,3.6-6.73q0-5.72-6.25-9.32-5.21-2.83-13.4-6.79-9.74-4.42-14.55-10.33a21,21,0,0,1-4.81-13.69q0-10.39,7.73-16.56T514.91,49.32Z"/><path class="cls-9" d="M571.52,50.39v34.7h42.79V50.39h15.94v82.45H614.31V98H571.52v34.82H555.58V50.39Z"/><path class="cls-9" d="M200.21,148h22.27q12.79,0,19.59,5.73t6.8,15.62q0,10-6.86,15.85T221.91,191H206.46v37.78h-6.25Zm6.25,5.21v32.63h15q10.13,0,15.39-4.29t5.26-12.09q0-7.45-5.14-11.86t-14.76-4.39Z"/><path class="cls-9" d="M327.2,148v80.82h-6.31v-38.3H267v38.3h-6.24V148H267v37.32h53.92V148Z"/><path class="cls-9" d="M385.28,146.93q17.94,0,30.41,12.06a40.89,40.89,0,0,1,0,58.78q-12.46,12.06-30.41,12.06T355,217.77A41,41,0,0,1,355,159Q367.41,146.93,385.28,146.93Zm.24,77.12A34.76,34.76,0,0,0,411,213.72,36.1,36.1,0,0,0,411,163a34.76,34.76,0,0,0-25.48-10.33A35.22,35.22,0,0,0,359.86,163a35.83,35.83,0,0,0,0,50.68A35.22,35.22,0,0,0,385.52,224.05Z"/><path class="cls-9" d="M492.6,148v5.21H462.29v75.61H456V153.18H425.67V148Z"/><path class="cls-9" d="M532.93,146.93q17.93,0,30.4,12.06a40.87,40.87,0,0,1,0,58.78q-12.47,12.06-30.4,12.06t-30.29-12.06a41,41,0,0,1,0-58.78Q515,146.93,532.93,146.93Zm.23,77.12a34.76,34.76,0,0,0,25.48-10.33,36.1,36.1,0,0,0,0-50.68,34.76,34.76,0,0,0-25.48-10.33A35.22,35.22,0,0,0,507.5,163a35.83,35.83,0,0,0,0,50.68A35.22,35.22,0,0,0,533.16,224.05Z"/><path class="cls-9" d="M629.14,152v6.88q-10.53-6.18-18.11-6.19a17.48,17.48,0,0,0-12.18,4.43,14.18,14.18,0,0,0-4.89,11,13.51,13.51,0,0,0,2.9,8.45q2.88,3.76,12.09,7.23a114.49,114.49,0,0,1,13.42,5.79,20.43,20.43,0,0,1,7.17,6.71q3,4.4,3,11.39a20.76,20.76,0,0,1-6.82,15.74A23.45,23.45,0,0,1,609,229.83q-10.07,0-20.71-7.06v-7.34Q600,224,608.66,224.05a17,17,0,0,0,12.12-4.66,15.65,15.65,0,0,0,1.88-20.71q-3.07-4.14-12.44-7.74a125.46,125.46,0,0,1-13.39-5.79,19.81,19.81,0,0,1-6.83-6.28,18.1,18.1,0,0,1-2.81-10.49A19.87,19.87,0,0,1,594,153.2a23.44,23.44,0,0,1,16.43-6.27A38.46,38.46,0,0,1,629.14,152Z"/></g></g></svg>